PathFileType  4	(X/Y/Z) C:\Users\antoi\Documents\MyRepositories\mobilecap\ResultsAnalysis
DataRate	CameraRate	NumFrames	NumMarkers	Units	OrigDataRate	OrigDataStartFrame	OrigNumFrames
100.0	100.0	4	51	mm	100.0	52	136
Frame#	Time	r_knee			r_shank_antsup			r_ankle			r_calc			r_5meta			r_toe			L_knee			L_shank_antsup			L_ankle			L_calc			L_5meta			L_toe			r_sh2			r_sh3			r_sh4			L_sh2			L_sh3			r_thigh1			r_thigh2			r_thigh3			r_thigh4			r_thigh5			L_thigh1			L_thigh2			L_thigh3			L_thigh4			r.ASIS			r.PSIS			L.ASIS			L.PSIS			C7			R_Shoulder			L_Shoulder			R_Sternum			L_Sternum			R_humerus			R_elbow_med			R_elbow_lat			R_forearm			R_wrist_radius			R_wrist_ulna			L_humerus			L_elbow_med			L_elbow_lat			L_forearm			L_wrist_radius			L_wrist_ulna			R_HJC			L_HJC			R_HJC_reg			L_HJC_reg			
		X1	Y1	Z1	X2	Y2	Z2	X3	Y3	Z3	X4	Y4	Z4	X5	Y5	Z5	X6	Y6	Z6	X7	Y7	Z7	X8	Y8	Z8	X9	Y9	Z9	X10	Y10	Z10	X11	Y11	Z11	X12	Y12	Z12	X13	Y13	Z13	X14	Y14	Z14	X15	Y15	Z15	X16	Y16	Z16	X17	Y17	Z17	X18	Y18	Z18	X19	Y19	Z19	X20	Y20	Z20	X21	Y21	Z21	X22	Y22	Z22	X23	Y23	Z23	X24	Y24	Z24	X25	Y25	Z25	X26	Y26	Z26	X27	Y27	Z27	X28	Y28	Z28	X29	Y29	Z29	X30	Y30	Z30	X31	Y31	Z31	X32	Y32	Z32	X33	Y33	Z33	X34	Y34	Z34	X35	Y35	Z35	X36	Y36	Z36	X37	Y37	Z37	X38	Y38	Z38	X39	Y39	Z39	X40	Y40	Z40	X41	Y41	Z41	X42	Y42	Z42	X43	Y43	Z43	X44	Y44	Z44	X45	Y45	Z45	X46	Y46	Z46	X47	Y47	Z47	X48	Y48	Z48	X49	Y49	Z49	X50	Y50	Z50	X51	Y51	Z51	

52	0.51000000	303.43366	533.56644	-132.00862	295.81810	403.80546	-149.20107	114.61741	109.83560	-181.75107	46.85903	80.81907	-232.50079	235.51697	36.10654	-123.71161	280.59135	56.70724	-192.63562	567.21449	532.58789	-442.90168	648.21623	467.53107	-436.79489	763.56915	121.10454	-433.21430	730.64350	69.27584	-371.36438	920.08949	131.20690	-475.99285	938.46423	176.26047	-415.54133	267.22684	297.07220	-174.91088	230.56700	409.98855	-108.20305	205.13351	295.79998	-116.68736	574.33235	422.91579	-465.60377	655.39434	332.97174	-484.98606	473.42557	728.93525	-132.84709	442.61719	623.81009	-153.18475	399.53945	599.87228	-106.20805	382.74415	738.85685	-64.08892	351.99050	628.54206	-92.19368	553.50453	788.38934	-453.99394	604.72293	660.72435	-443.88083	456.26963	745.30032	-490.76177	506.16603	618.06019	-472.50837	500.79640	1016.26520	-127.90343	294.98900	1055.57439	-210.48916	498.71419	1017.45086	-391.54755	289.22894	1053.27397	-308.95056	363.57472	1549.28355	-257.85003	457.76935	1480.62801	-82.48810	412.72287	1499.88284	-443.52867	506.90141	1474.06411	-250.86682	498.79703	1470.11240	-298.00816	495.81528	1318.20109	-13.03385	442.07556	1085.92207	-25.92701	477.32605	1116.91642	42.49109	609.65817	1004.40736	19.39092	678.12526	903.70662	14.08436	657.14388	885.52018	47.62664	361.34600	1336.53866	-531.95762	248.23035	1145.67916	-478.76028	257.37081	1164.58529	-557.81583	313.56088	1009.14722	-587.34377	299.50238	895.67477	-627.35035	256.84906	906.65702	-647.75141	416.30411	938.39478	-162.59401	417.06745	927.95254	-375.72563	427.97804	943.20947	-159.30782	417.81896	939.14747	-332.97558	
53	0.52000000	313.48052	532.35412	-132.35743	303.63825	402.33534	-149.32261	116.05159	112.10742	-181.64831	47.76829	84.07275	-232.34879	235.89296	35.98618	-123.69882	281.18633	56.45971	-192.50649	583.09328	531.42607	-444.10307	663.42841	465.78250	-437.12379	778.09384	119.00603	-433.91711	743.61803	66.60063	-373.50850	936.19130	129.14847	-471.79559	952.16141	174.34814	-410.73220	272.89420	296.26092	-174.92118	238.45387	409.95353	-108.45947	210.62791	296.33515	-116.77940	589.80623	421.56067	-467.13739	671.01438	331.66996	-485.94938	485.36947	726.31095	-132.58328	453.82766	621.27383	-152.70677	410.32976	597.89283	-106.00712	394.22474	737.19213	-64.53420	362.76396	626.74234	-92.27317	567.73435	787.08932	-453.16911	619.56017	659.65434	-442.59469	471.90545	743.64901	-492.84232	521.85497	616.78092	-474.02745	514.21366	1013.78853	-128.25912	308.48480	1052.62310	-211.98540	512.43626	1014.47515	-391.99723	302.58059	1050.53822	-310.39158	377.01186	1546.69847	-259.61521	471.10132	1477.89150	-83.99025	426.19507	1496.56967	-445.30304	520.17599	1471.08033	-252.40664	512.32573	1467.25667	-299.58718	509.37775	1315.42434	-14.53339	456.16895	1083.05087	-27.37580	491.05213	1114.22585	41.13532	624.14197	1002.54939	18.18439	693.21453	902.35884	12.83606	672.25202	883.89388	46.25760	375.20995	1332.76241	-533.20371	262.84435	1141.67730	-479.43938	271.54409	1160.72694	-558.57772	326.37968	1004.94002	-588.31972	310.92468	891.40787	-628.06898	268.57389	903.00403	-648.75011	429.58556	935.79268	-163.29827	430.97355	924.97749	-376.41438	441.87591	940.03525	-159.75100	431.45226	936.35469	-333.46206	
54	0.53000000	324.12474	531.08764	-132.68095	311.98624	400.83079	-149.43334	117.71403	114.73904	-181.29145	48.87950	87.91561	-231.90282	236.37783	35.77960	-123.64412	281.85458	56.15751	-192.31701	600.39455	530.98687	-445.44692	679.49325	463.62404	-437.34212	788.43016	115.48599	-434.10691	751.74931	63.11340	-375.16295	948.05226	123.36364	-467.04712	962.27060	168.16310	-405.27922	278.86829	295.45103	-174.92001	246.97734	409.94909	-108.60865	216.63389	296.98868	-116.74366	605.67308	420.72271	-468.70642	685.58748	329.68653	-486.55838	497.69984	723.82625	-132.60590	465.60803	618.82392	-152.41840	421.71160	596.11538	-105.94532	406.20179	735.56814	-65.12760	374.10791	624.93376	-92.45607	583.06651	787.21597	-452.58625	636.17339	660.31061	-441.54414	488.79014	742.76078	-494.87944	539.71001	616.49780	-475.67754	527.86412	1011.39529	-128.83734	322.16264	1049.74235	-213.46431	525.99580	1011.86338	-392.88773	316.04633	1047.94770	-311.70935	390.53319	1544.31709	-261.43698	484.54999	1475.32723	-85.55829	439.77561	1493.40302	-447.16773	533.53019	1468.21880	-254.01336	525.95765	1464.57000	-301.22822	522.94002	1312.76254	-16.16859	470.06105	1080.34704	-29.01704	504.55979	1111.64975	39.60796	638.27997	1000.65855	16.86385	707.81763	900.88919	11.52545	686.85742	882.17729	44.80698	389.40759	1329.02317	-534.48213	277.78306	1137.69214	-480.27415	286.13999	1156.85864	-559.47582	339.79620	1000.75745	-589.22208	323.05947	887.12056	-628.66689	281.11266	899.33222	-649.75279	443.15478	933.26273	-164.27048	444.83480	922.30206	-377.38067	455.93625	936.90909	-160.45517	445.10576	933.73848	-334.35280	
55	0.54000000	335.36412	529.76710	-132.95791	320.86673	399.31244	-149.53083	119.64561	117.77483	-180.69666	50.22892	92.39845	-231.16963	236.95965	35.48928	-123.54096	282.59865	55.79519	-192.06683	618.52870	530.94896	-446.75271	696.04858	461.04725	-437.26997	795.33089	110.90065	-433.85161	755.99945	59.17216	-376.35248	956.33043	114.62370	-462.02440	969.47780	158.64406	-399.50467	285.13297	294.66604	-174.90650	256.13418	409.98774	-108.65567	223.15134	297.78214	-116.58789	621.75783	420.19403	-470.29920	699.27232	327.10404	-486.80575	510.35038	721.51749	-132.89325	477.85801	616.50698	-152.33476	433.63083	594.54251	-106.02524	418.61955	734.01429	-65.85035	385.98750	623.18111	-92.73818	599.30487	788.31856	-452.34553	654.06759	662.11617	-440.86465	506.50811	742.43742	-496.67561	559.03909	616.82291	-477.29112	541.79296	1009.09308	-129.71786	336.08676	1046.98158	-214.89904	539.54593	1009.73727	-394.24886	329.73978	1045.50950	-312.87519	404.13920	1542.15227	-263.31938	498.14532	1472.99758	-87.21704	453.45203	1490.44366	-449.11897	547.01108	1465.57327	-255.70638	539.68792	1462.10349	-302.94814	536.49078	1310.29316	-17.92725	483.72824	1077.88201	-30.85911	517.83752	1109.25936	37.90621	652.03567	998.77686	15.42231	721.90166	899.33962	10.15039	700.91735	880.41548	43.27984	403.90312	1325.40764	-535.79349	292.99250	1133.82260	-481.23418	301.10787	1153.05980	-560.49264	353.82692	996.69741	-590.01342	335.98892	882.89964	-629.10112	294.54618	895.70409	-650.72423	457.12046	930.81721	-165.56217	458.76836	920.02348	-378.68033	470.18543	933.97756	-161.49417	458.89422	931.37146	-335.69287	
